# xmcd
#
# Track frame offsets:
#	150
#	12716
#	27121
#	41377
#	58894
#	72332
#	88375
#	102003
#	114586
#	132191
#	145570
#	159605
#	176575
#	193181
#	209179
#	222156
#	238350
#	250502
#	264492
#	284105
#
# Disc length: 3957 seconds
#
# Revision: 1
# Processed by: cddbd v1.5.2PL0 Copyright (c) Steve Scherf et al.
# Submitted via: audiograbber 1.83.01
#
DISCID=390f7314
DTITLE=ROBERTO MULLER - 50 ANOS DE SUCESSOS
DYEAR=1900
DGENRE=
TTITLE0=ENTRE ESPUMAS
TTITLE1=NUNCA MAIS BRIGAREI CONTIGO
TTITLE2=LUZ NEGRA
TTITLE3=VELHA MOÇA
TTITLE4=CHEGA
TTITLE5=TU ESCOLHESTE O TEU CAMINHO
TTITLE6=MULHER DO BOYTE
TTITLE7=TAVEZ, TALVEZ, TALVEZ
TTITLE8=NEM MAIS AMOR POR VOCÊ
TTITLE9=BOA SORTE MEU AMOR
TTITLE10=POR DENTRO EU TE AMO
TTITLE11=MERGULHO NO PASSADO
TTITLE12=POR UM MOMENTO APENAS
TTITLE13=DESCASO
TTITLE14=NUNCA MEU AMOR
TTITLE15=ONDE ANDARA
TTITLE16=FRUTO AMARGO
TTITLE17=COLECIONADOR DE CHIFRE
TTITLE18=OLHOS TRISTE
TTITLE19=TRÊS PALAVRAS
EXTD=
EXTT0=
EXTT1=
EXTT2=
EXTT3=
EXTT4=
EXTT5=
EXTT6=
EXTT7=
EXTT8=
EXTT9=
EXTT10=
EXTT11=
EXTT12=
EXTT13=
EXTT14=
EXTT15=
EXTT16=
EXTT17=
EXTT18=
EXTT19=
PLAYORDER=
